<svg width="20" height="810" viewBox="0 0 20 810" fill="none" xmlns="http://www.w3.org/2000/svg">
<rect x="19.7993" y="9.89954" width="14" height="14" rx="2" transform="rotate(135 19.7993 9.89954)" fill="#747E5B"/>
<rect x="19.7993" y="419.9" width="14" height="14" rx="2" transform="rotate(135 19.7993 419.9)" fill="#747E5B"/>
<rect x="19.7993" y="214.9" width="14" height="14" rx="2" transform="rotate(135 19.7993 214.9)" fill="#747E5B"/>
<rect x="19.7993" y="624.9" width="14" height="14" rx="2" transform="rotate(135 19.7993 624.9)" fill="#747E5B"/>
<rect x="19.7993" y="68.0001" width="14" height="14" rx="2" transform="rotate(135 19.7993 68.0001)" fill="#747E5B"/>
<rect x="19.7993" y="478" width="14" height="14" rx="2" transform="rotate(135 19.7993 478)" fill="#747E5B"/>
<rect x="19.7993" y="273" width="14" height="14" rx="2" transform="rotate(135 19.7993 273)" fill="#747E5B"/>
<rect x="19.7993" y="683" width="14" height="14" rx="2" transform="rotate(135 19.7993 683)" fill="#747E5B"/>
<rect x="19.7993" y="39.0001" width="14" height="14" rx="2" transform="rotate(135 19.7993 39.0001)" fill="#747E5B"/>
<rect x="19.7993" y="449" width="14" height="14" rx="2" transform="rotate(135 19.7993 449)" fill="#747E5B"/>
<rect x="19.7993" y="244" width="14" height="14" rx="2" transform="rotate(135 19.7993 244)" fill="#747E5B"/>
<rect x="19.7993" y="654" width="14" height="14" rx="2" transform="rotate(135 19.7993 654)" fill="#747E5B"/>
<rect x="19.7993" y="97.0001" width="14" height="14" rx="2" transform="rotate(135 19.7993 97.0001)" fill="#747E5B"/>
<rect x="19.7993" y="507" width="14" height="14" rx="2" transform="rotate(135 19.7993 507)" fill="#747E5B"/>
<rect x="19.7993" y="302" width="14" height="14" rx="2" transform="rotate(135 19.7993 302)" fill="#747E5B"/>
<rect x="19.7993" y="712" width="14" height="14" rx="2" transform="rotate(135 19.7993 712)" fill="#747E5B"/>
<rect x="19.7993" y="155.9" width="14" height="14" rx="2" transform="rotate(135 19.7993 155.9)" fill="#747E5B"/>
<rect x="19.7993" y="565.899" width="14" height="14" rx="2" transform="rotate(135 19.7993 565.899)" fill="#747E5B"/>
<rect x="19.7993" y="360.9" width="14" height="14" rx="2" transform="rotate(135 19.7993 360.9)" fill="#747E5B"/>
<rect x="19.7993" y="770.899" width="14" height="14" rx="2" transform="rotate(135 19.7993 770.899)" fill="#747E5B"/>
<rect x="19.7993" y="126" width="14" height="14" rx="2" transform="rotate(135 19.7993 126)" fill="#747E5B"/>
<rect x="19.7993" y="536" width="14" height="14" rx="2" transform="rotate(135 19.7993 536)" fill="#747E5B"/>
<rect x="19.7993" y="331" width="14" height="14" rx="2" transform="rotate(135 19.7993 331)" fill="#747E5B"/>
<rect x="19.7993" y="741" width="14" height="14" rx="2" transform="rotate(135 19.7993 741)" fill="#747E5B"/>
<rect x="19.7993" y="184.9" width="14" height="14" rx="2" transform="rotate(135 19.7993 184.9)" fill="#747E5B"/>
<rect x="19.7993" y="594.899" width="14" height="14" rx="2" transform="rotate(135 19.7993 594.899)" fill="#747E5B"/>
<rect x="19.7993" y="389.9" width="14" height="14" rx="2" transform="rotate(135 19.7993 389.9)" fill="#747E5B"/>
<rect x="19.7993" y="799.899" width="14" height="14" rx="2" transform="rotate(135 19.7993 799.899)" fill="#747E5B"/>
</svg>
