<svg width="200" height="20" viewBox="0 0 200 20" fill="none" xmlns="http://www.w3.org/2000/svg">
<rect x="189.656" y="19.7988" width="14" height="14" rx="2" transform="rotate(-135 189.656 19.7988)" fill="#747E5B"/>
<rect x="109.9" y="19.7988" width="14" height="14" rx="2" transform="rotate(-135 109.9 19.7988)" fill="#747E5B"/>
<rect x="149.9" y="19.7988" width="14" height="14" rx="2" transform="rotate(-135 149.9 19.7988)" fill="#747E5B"/>
<rect x="70.1438" y="19.7988" width="14" height="14" rx="2" transform="rotate(-135 70.1438 19.7988)" fill="#747E5B"/>
<rect x="9.89966" y="19.7988" width="14" height="14" rx="2" transform="rotate(-135 9.89966 19.7988)" fill="#747E5B"/>
<rect x="169.9" y="19.7988" width="14" height="14" rx="2" transform="rotate(-135 169.9 19.7988)" fill="#747E5B"/>
<rect x="90.1438" y="19.7988" width="14" height="14" rx="2" transform="rotate(-135 90.1438 19.7988)" fill="#747E5B"/>
<rect x="29.8997" y="19.7988" width="14" height="14" rx="2" transform="rotate(-135 29.8997 19.7988)" fill="#747E5B"/>
<rect x="130.144" y="19.7988" width="14" height="14" rx="2" transform="rotate(-135 130.144 19.7988)" fill="#747E5B"/>
<rect x="50.3879" y="19.7988" width="14" height="14" rx="2" transform="rotate(-135 50.3879 19.7988)" fill="#747E5B"/>
</svg>
