<svg width="400" height="20" viewBox="0 0 400 20" fill="none" xmlns="http://www.w3.org/2000/svg">
<rect x="389.533" y="19.7991" width="14" height="14" rx="2" transform="rotate(-135 389.533 19.7991)" fill="#747E5B"/>
<rect x="309.777" y="19.7991" width="14" height="14" rx="2" transform="rotate(-135 309.777 19.7991)" fill="#747E5B"/>
<rect x="349.777" y="19.7991" width="14" height="14" rx="2" transform="rotate(-135 349.777 19.7991)" fill="#747E5B"/>
<rect x="270.022" y="19.7991" width="14" height="14" rx="2" transform="rotate(-135 270.022 19.7991)" fill="#747E5B"/>
<rect x="209.777" y="19.7991" width="14" height="14" rx="2" transform="rotate(-135 209.777 19.7991)" fill="#747E5B"/>
<rect x="369.777" y="19.7991" width="14" height="14" rx="2" transform="rotate(-135 369.777 19.7991)" fill="#747E5B"/>
<rect x="290.022" y="19.7991" width="14" height="14" rx="2" transform="rotate(-135 290.022 19.7991)" fill="#747E5B"/>
<rect x="229.777" y="19.7991" width="14" height="14" rx="2" transform="rotate(-135 229.777 19.7991)" fill="#747E5B"/>
<rect x="330.022" y="19.7991" width="14" height="14" rx="2" transform="rotate(-135 330.022 19.7991)" fill="#747E5B"/>
<rect x="250.266" y="19.7991" width="14" height="14" rx="2" transform="rotate(-135 250.266 19.7991)" fill="#747E5B"/>
<rect x="189.655" y="19.9214" width="14" height="14" rx="2" transform="rotate(-135 189.655 19.9214)" fill="#747E5B"/>
<rect x="109.899" y="19.9214" width="14" height="14" rx="2" transform="rotate(-135 109.899 19.9214)" fill="#747E5B"/>
<rect x="149.899" y="19.9214" width="14" height="14" rx="2" transform="rotate(-135 149.899 19.9214)" fill="#747E5B"/>
<rect x="70.1436" y="19.9214" width="14" height="14" rx="2" transform="rotate(-135 70.1436 19.9214)" fill="#747E5B"/>
<rect x="9.89941" y="19.9214" width="14" height="14" rx="2" transform="rotate(-135 9.89941 19.9214)" fill="#747E5B"/>
<rect x="169.899" y="19.9214" width="14" height="14" rx="2" transform="rotate(-135 169.899 19.9214)" fill="#747E5B"/>
<rect x="90.1436" y="19.9214" width="14" height="14" rx="2" transform="rotate(-135 90.1436 19.9214)" fill="#747E5B"/>
<rect x="29.8994" y="19.9214" width="14" height="14" rx="2" transform="rotate(-135 29.8994 19.9214)" fill="#747E5B"/>
<rect x="130.144" y="19.9214" width="14" height="14" rx="2" transform="rotate(-135 130.144 19.9214)" fill="#747E5B"/>
<rect x="50.3877" y="19.9214" width="14" height="14" rx="2" transform="rotate(-135 50.3877 19.9214)" fill="#747E5B"/>
</svg>
