<svg width="20" height="430" viewBox="0 0 20 430" fill="none" xmlns="http://www.w3.org/2000/svg">
<rect x="19.7991" y="39.8995" width="14" height="14" rx="2" transform="rotate(135 19.7991 39.8995)" fill="#747E5B"/>
<rect x="19.7991" y="244.9" width="14" height="14" rx="2" transform="rotate(135 19.7991 244.9)" fill="#747E5B"/>
<rect x="19.7991" y="98.0001" width="14" height="14" rx="2" transform="rotate(135 19.7991 98.0001)" fill="#747E5B"/>
<rect x="19.7991" y="303" width="14" height="14" rx="2" transform="rotate(135 19.7991 303)" fill="#747E5B"/>
<rect x="19.7991" y="69.0001" width="14" height="14" rx="2" transform="rotate(135 19.7991 69.0001)" fill="#747E5B"/>
<rect x="19.7991" y="274" width="14" height="14" rx="2" transform="rotate(135 19.7991 274)" fill="#747E5B"/>
<rect x="19.7991" y="127" width="14" height="14" rx="2" transform="rotate(135 19.7991 127)" fill="#747E5B"/>
<rect x="19.7991" y="332" width="14" height="14" rx="2" transform="rotate(135 19.7991 332)" fill="#747E5B"/>
<rect x="19.7991" y="185.899" width="14" height="14" rx="2" transform="rotate(135 19.7991 185.899)" fill="#747E5B"/>
<rect x="19.7991" y="390.899" width="14" height="14" rx="2" transform="rotate(135 19.7991 390.899)" fill="#747E5B"/>
<rect x="19.7991" y="156" width="14" height="14" rx="2" transform="rotate(135 19.7991 156)" fill="#747E5B"/>
<rect x="19.7991" y="361" width="14" height="14" rx="2" transform="rotate(135 19.7991 361)" fill="#747E5B"/>
<rect x="19.7991" y="214.899" width="14" height="14" rx="2" transform="rotate(135 19.7991 214.899)" fill="#747E5B"/>
<rect x="19.7991" y="9.89954" width="14" height="14" rx="2" transform="rotate(135 19.7991 9.89954)" fill="#747E5B"/>
<rect x="19.7991" y="419.899" width="14" height="14" rx="2" transform="rotate(135 19.7991 419.899)" fill="#747E5B"/>
</svg>
